HIERARCHY
ROOT hip
{
  OFFSET 0 0 0
  CHANNELS 6 Xposition Yposition Zposition Zrotation Yrotation Xrotation
  JOINT abdomen
  {
    OFFSET 0 20.6881 -0.73152
    CHANNELS 3 Zrotation Xrotation Yrotation
    JOINT chest
    {
      OFFSET 0 11.7043 -0.48768
      CHANNELS 3 Zrotation Xrotation Yrotation
      JOINT neck
      {
        OFFSET 0 22.1894 -2.19456
        CHANNELS 3 Zrotation Xrotation Yrotation
        JOINT head
        {
          OFFSET -0.24384 7.07133 1.2192
          CHANNELS 3 Zrotation Xrotation Yrotation
          JOINT leftEye
          {
            OFFSET 4.14528 8.04674 8.04672
            CHANNELS 3 Zrotation Xrotation Yrotation
            End Site
            {
              OFFSET 1 0 0
            }
          }
          JOINT rightEye
          {
            OFFSET -3.6576 8.04674 8.04672
            CHANNELS 3 Zrotation Xrotation Yrotation
            End Site
            {
              OFFSET 1 0 0
            }
          }
        }
      }
      JOINT rCollar
      {
        OFFSET -2.68224 19.2634 -4.8768
        CHANNELS 3 Zrotation Xrotation Yrotation
        JOINT rShldr
        {
          OFFSET -8.77824 -1.95073 1.46304
          CHANNELS 3 Zrotation Xrotation Yrotation
          JOINT rForeArm
          {
            OFFSET -28.1742 -1.7115 0.48768
            CHANNELS 3 Zrotation Xrotation Yrotation
            JOINT rHand
            {
              OFFSET -22.5879 0.773209 7.07136
              CHANNELS 3 Zrotation Xrotation Yrotation
              JOINT rThumb1
              {
                OFFSET -1.2192 -0.487915 3.41376
                CHANNELS 3 Zrotation Xrotation Yrotation
                JOINT rThumb2
                {
                  OFFSET -3.37035 -0.52449 3.41376
                  CHANNELS 3 Zrotation Xrotation Yrotation
                  End Site
                  {
                    OFFSET -1.78271 -1.18214 1.43049
                  }
                }
              }
              JOINT rIndex1
              {
                OFFSET -7.75947 0.938293 5.60832
                CHANNELS 3 Zrotation Xrotation Yrotation
                JOINT rIndex2
                {
                  OFFSET -2.54057 -0.884171 1.56538
                  CHANNELS 3 Zrotation Xrotation Yrotation
                  End Site
                  {
                    OFFSET -1.62519 -0.234802 1.16502
                  }
                }
              }
              JOINT rMid1
              {
                OFFSET -8.24714 1.18213 3.41376
                CHANNELS 3 Zrotation Xrotation Yrotation
                JOINT rMid2
                {
                  OFFSET -3.10165 -0.590103 1.0647
                  CHANNELS 3 Zrotation Xrotation Yrotation
                  End Site
                  {
                    OFFSET -2.48547 -0.328903 0.83742
                  }
                }
              }
              JOINT rRing1
              {
                OFFSET -8.82822 0.546677 1.51678
                CHANNELS 3 Zrotation Xrotation Yrotation
                JOINT rRing2
                {
                  OFFSET -2.60934 -0.819778 -0.0198488
                  CHANNELS 3 Zrotation Xrotation Yrotation
                  End Site
                  {
                    OFFSET -2.33842 -0.294052 0.168128
                  }
                }
              }
              JOINT rPinky1
              {
                OFFSET -8.27202 -0.0477905 -0.4584
                CHANNELS 3 Zrotation Xrotation Yrotation
                JOINT rPinky2
                {
                  OFFSET -1.82734 -0.647385 -0.700984
                  CHANNELS 3 Zrotation Xrotation Yrotation
                  End Site
                  {
                    OFFSET -1.69225 -0.51767 -0.607171
                  }
                }
              }
            }
          }
        }
      }
      JOINT lCollar
      {
        OFFSET 2.68224 19.2634 -4.8768
        CHANNELS 3 Zrotation Xrotation Yrotation
        JOINT lShldr
        {
          OFFSET 8.77824 -1.95073 1.46304
          CHANNELS 3 Zrotation Xrotation Yrotation
          JOINT lForeArm
          {
            OFFSET 28.1742 -1.7115 0.48768
            CHANNELS 3 Zrotation Xrotation Yrotation
            JOINT lHand
            {
              OFFSET 22.5879 0.773209 7.07136
              CHANNELS 3 Zrotation Xrotation Yrotation
              JOINT lThumb1
              {
                OFFSET 1.2192 -0.487915 3.41376
                CHANNELS 3 Zrotation Xrotation Yrotation
                JOINT lThumb2
                {
                  OFFSET 3.37035 -0.52449 3.41376
                  CHANNELS 3 Zrotation Xrotation Yrotation
                  End Site
                  {
                    OFFSET 1.78271 -1.18214 1.43049
                  }
                }
              }
              JOINT lIndex1
              {
                OFFSET 7.75947 0.938293 5.60832
                CHANNELS 3 Zrotation Xrotation Yrotation
                JOINT lIndex2
                {
                  OFFSET 2.54057 -0.884171 1.56538
                  CHANNELS 3 Zrotation Xrotation Yrotation
                  End Site
                  {
                    OFFSET 1.62519 -0.234802 1.16502
                  }
                }
              }
              JOINT lMid1
              {
                OFFSET 8.24714 1.18213 3.41376
                CHANNELS 3 Zrotation Xrotation Yrotation
                JOINT lMid2
                {
                  OFFSET 3.10165 -0.590103 1.0647
                  CHANNELS 3 Zrotation Xrotation Yrotation
                  End Site
                  {
                    OFFSET 2.48547 -0.328903 0.83742
                  }
                }
              }
              JOINT lRing1
              {
                OFFSET 8.82822 0.546677 1.51678
                CHANNELS 3 Zrotation Xrotation Yrotation
                JOINT lRing2
                {
                  OFFSET 2.60934 -0.819778 -0.0198488
                  CHANNELS 3 Zrotation Xrotation Yrotation
                  End Site
                  {
                    OFFSET 2.33842 -0.294052 0.168128
                  }
                }
              }
              JOINT lPinky1
              {
                OFFSET 8.27202 -0.0477905 -0.4584
                CHANNELS 3 Zrotation Xrotation Yrotation
                JOINT lPinky2
                {
                  OFFSET 1.82734 -0.647385 -0.700984
                  CHANNELS 3 Zrotation Xrotation Yrotation
                  End Site
                  {
                    OFFSET 1.69225 -0.51767 -0.607171
                  }
                }
              }
            }
          }
        }
      }
    }
  }
  JOINT rButtock
  {
    OFFSET -8.77824 4.35084 1.2192
    CHANNELS 3 Zrotation Xrotation Yrotation
    JOINT rThigh
    {
      OFFSET 0 -1.70687 -2.19456
      CHANNELS 3 Zrotation Xrotation Yrotation
      JOINT rShin
      {
        OFFSET 0 -36.8199 0.73152
        CHANNELS 3 Zrotation Xrotation Yrotation
        JOINT rFoot
        {
          OFFSET 0.73152 -45.1104 -5.12064
          CHANNELS 3 Zrotation Xrotation Yrotation
          End Site
          {
            OFFSET -1.1221 -3.69964 12.103
          }
        }
      }
    }
  }
  JOINT lButtock
  {
    OFFSET 8.77824 4.35084 1.2192
    CHANNELS 3 Zrotation Xrotation Yrotation
    JOINT lThigh
    {
      OFFSET 0 -1.70687 -2.19456
      CHANNELS 3 Zrotation Xrotation Yrotation
      JOINT lShin
      {
        OFFSET 0 -36.8199 0.73152
        CHANNELS 3 Zrotation Xrotation Yrotation
        JOINT lFoot
        {
          OFFSET -0.73152 -45.1104 -5.12064
          CHANNELS 3 Zrotation Xrotation Yrotation
          End Site
          {
            OFFSET 1.1221 -3.69964 12.103
          }
        }
      }
    }
  }
}
MOTION
Frames:	4
Frame Time:	0.03333
-4.009129712358117 70.7060158252716 110.49555065110326 2.3783435821533203 11.855667114257812 -4.101546764373779 -10.848297119140625 10.756226539611816 0.6946840882301331 5.527768135070801 -10.104347229003906 0.20093205571174622 -6.976975917816162 8.902634620666504 -6.00632905960083 9.658683776855469 -13.987696647644043 -9.169440269470215 -0.04065150395035744 -0.3308145999908447 -0.2169552743434906 -0.10238441824913025 -0.139940544962883 -0.06520836055278778 -0.075993113219738 0.14520588517189026 0.10790161043405533 53.21227264404297 48.20689392089844 36.49076843261719 -26.4641056060791 -25.803985595703125 60.878231048583984 -11.213666915893555 -65.2039794921875 -17.073644638061523 -0.024201279506087303 0.06921873986721039 0.11508570611476898 -0.14743231236934662 -0.13605429232120514 -0.061783675104379654 -0.0712987631559372 -0.21231618523597717 0.0894608125090599 7.112236976623535 5.15488862991333 0.5079580545425415 -0.0990670919418335 -0.30973464250564575 0.19214583933353424 2.6358766555786133 0.8850324153900146 -0.04994410648941994 0.30079543590545654 0.09683562815189362 -0.06481792777776718 10.131656646728516 0.5133980512619019 0.03556380420923233 -0.06230653449892998 0.47795531153678894 0.30584654211997986 2.370540142059326 -1.1153757572174072 0.22826775908470154 -0.36977526545524597 0.17930446565151215 -0.3487650156021118 -22.010791778564453 26.62062644958496 -100.88368225097656 29.021352767944336 -32.3720817565918 -70.370361328125 1.3496427536010742 -37.420555114746094 5.300840854644775 -0.13208085298538208 0.13310866057872772 0.08542189747095108 0.15859048068523407 0.1431877762079239 0.0603066049516201 0.3900146782398224 0.15289774537086487 0.04053683206439018 -7.350829124450684 5.444153785705566 -0.5018995404243469 0.1194169819355011 0.20988886058330536 0.03347710147500038 -2.402615547180176 0.7017988562583923 -0.08164432644844055 0.23130978643894196 0.055141549557447433 0.47547468543052673 -10.08349609375 0.45929786562919617 -0.01420809980481863 -0.019852427765727043 0.23359669744968414 0.3904741406440735 -2.47823166847229 -1.0974868535995483 0.13288533687591553 -0.1621452122926712 -0.2280506193637848 0.026430988684296608 -19.725082397460938 -54.171634674072266 -18.013538360595703 -3.366718053817749 75.04814910888672 3.614971876144409 -2.2104504108428955 1.1268587112426758 -8.621234893798828 0.2556178867816925 -0.41210049390792847 0.4770490825176239 0.14374656975269318 -34.97586441040039 14.915596961975098 2.7932960987091064 67.82613372802734 -4.203797817230225 9.988104820251465 -13.025275230407715 23.740909576416016
-3.848716290667653 70.7243025302887 112.64490270987153 2.1348588466644287 13.632298469543457 -5.520502090454102 -10.805296897888184 10.955520629882812 0.7394905686378479 5.418684005737305 -10.132185935974121 0.3754124343395233 -7.370333671569824 8.896635055541992 -6.3305230140686035 9.710283279418945 -12.62553596496582 -10.05223274230957 -0.09679142385721207 -0.37109795212745667 -0.22527213394641876 -0.09172151982784271 -0.19967998564243317 -0.08555073291063309 -0.11137296259403229 0.2006504237651825 0.10346433520317078 52.23286437988281 46.371280670166016 37.68288803100586 -27.101543426513672 -27.74367332458496 63.96333694458008 -11.604167938232422 -65.69180297851562 -17.63460922241211 -0.12454729527235031 0.10808166861534119 0.21354807913303375 -0.08609166741371155 -0.1524057537317276 -0.039129212498664856 0.014505847357213497 -0.18099020421504974 0.174900621175766 7.054958820343018 5.054193496704102 0.5677505135536194 -0.04945545271039009 -0.4994475245475769 0.12248457223176956 2.6921439170837402 0.8345367312431335 -0.17984868586063385 0.32669034600257874 0.0847197026014328 -0.11611200869083405 10.163938522338867 0.5202116966247559 0.10231565684080124 -0.1054297685623169 0.4998576045036316 0.3189166486263275 2.232621431350708 -1.2039982080459595 0.21039512753486633 -0.3847169280052185 0.25834670662879944 -0.2976478636264801 -18.85335350036621 29.01215171813965 -100.93550872802734 29.327720642089844 -33.91157913208008 -72.96134185791016 1.1708593368530273 -34.49559783935547 4.819544315338135 -0.2326664924621582 0.20343387126922607 0.027957245707511902 0.17992953956127167 0.2089078277349472 0.07983539253473282 0.3930692672729492 0.10333496332168579 -0.01222641859203577 -7.480978488922119 5.230672359466553 -0.5108388662338257 0.03682330623269081 0.16870950162410736 0.11452291905879974 -2.356426954269409 0.6074269413948059 -0.08870730549097061 0.19383563101291656 0.14042536914348602 0.5143288969993591 -10.137494087219238 0.4195745289325714 0.08238355815410614 -0.11828011274337769 0.2565699815750122 0.27295222878456116 -2.4259259700775146 -1.0839385986328125 -0.07182686030864716 -0.16981558501720428 -0.23499418795108795 -0.10942980647087097 -20.64651107788086 -54.29597091674805 -17.296205520629883 -2.358025074005127 68.96705627441406 2.5472419261932373 -1.790981411933899 3.861556053161621 -5.161930561065674 0.07124897837638855 -0.3965793550014496 0.3558771312236786 -0.41744813323020935 -31.24681854248047 13.09479808807373 2.539761543273926 66.93616485595703 -4.176703929901123 10.339839935302734 -14.124403953552246 23.7643985748291
-3.6573682446032763 70.93960046768188 114.74219420924783 2.151621103286743 16.06492042541504 -7.030595779418945 -10.66242790222168 11.383668899536133 0.6930506825447083 5.511399745941162 -10.180026054382324 0.6096123456954956 -7.875124931335449 9.119547843933105 -6.799805164337158 9.856761932373047 -11.318267822265625 -11.124404907226562 -0.1547703593969345 -0.3691396117210388 -0.23458443582057953 -0.11084893345832825 -0.219464510679245 -0.11207506060600281 -0.15673144161701202 0.3113495707511902 0.09054534882307053 49.09162902832031 43.23126983642578 41.31718444824219 -27.764549255371094 -30.127126693725586 67.97305297851562 -11.204188346862793 -65.02281951904297 -17.477006912231445 -0.17506878077983856 0.1755274385213852 0.2797277867794037 -0.021602891385555267 -0.12877126038074493 -0.019142996519804 0.12543082237243652 -0.03370123729109764 0.26700717210769653 7.088278770446777 5.020838260650635 0.5691410899162292 -0.02520184963941574 -0.6571652293205261 -0.0017387300031259656 2.69100284576416 0.8057721853256226 -0.336467444896698 0.38888996839523315 0.06706798821687698 -0.21588349342346191 10.212091445922852 0.5612210035324097 0.12901824712753296 -0.18364807963371277 0.4725904166698456 0.23414047062397003 2.1225030422210693 -1.2589232921600342 0.1244969293475151 -0.352687805891037 0.2477647215127945 -0.17837178707122803 -14.2170991897583 32.381004333496094 -101.55390167236328 29.43142318725586 -36.341461181640625 -77.09703063964844 1.124922752380371 -31.91621971130371 4.468844413757324 -0.36877501010894775 0.21437431871891022 -0.06983457505702972 0.18397371470928192 0.2261650562286377 0.11522582173347473 0.40153419971466064 -0.024105504155158997 -0.09049668908119202 -7.691177845001221 5.009688377380371 -0.4518413245677948 -0.04780690371990204 0.16964305937290192 0.17762038111686707 -2.4082753658294678 0.618587851524353 -0.022056235000491142 0.06851600855588913 0.2045699805021286 0.5085644125938416 -10.17347240447998 0.3953804671764374 0.2070845663547516 -0.2356921285390854 0.3229035437107086 0.1008870080113411 -2.3620681762695312 -1.0629979372024536 -0.2633121907711029 -0.12489330768585205 -0.2592623233795166 -0.264815092086792 -22.500831604003906 -55.16594696044922 -17.080533981323242 -1.961132526397705 62.75813293457031 2.100560426712036 -1.633871078491211 7.803656101226807 -1.2381874322891235 -0.16775402426719666 -0.380862295627594 0.16929498314857483 -0.9069695472717285 -26.7125186920166 11.355538368225098 2.101041316986084 65.51927947998047 -3.862701892852783 10.70094108581543 -15.225983619689941 23.8799991607666
-3.449895652011037 71.51370644569397 116.8892745859921 2.475154161453247 18.640811920166016 -8.087313652038574 -10.336426734924316 11.412734031677246 0.45286718010902405 5.83452033996582 -10.186838150024414 0.7803276181221008 -8.352622985839844 9.599310874938965 -7.415306091308594 10.206337928771973 -10.039048194885254 -12.185338020324707 -0.16878476738929749 -0.3813646733760834 -0.2750454246997833 -0.1601507067680359 -0.15516626834869385 -0.1307547390460968 -0.20785756409168243 0.5285153388977051 0.10526394844055176 44.86972427368164 38.97053909301758 45.582115173339844 -28.331491470336914 -32.659915924072266 72.2894515991211 -9.01826000213623 -61.421817779541016 -15.254858016967773 -0.14695113897323608 0.2396419197320938 0.26865965127944946 -0.020813358947634697 -0.043928954750299454 0.04047343507409096 0.20796078443527222 0.17245826125144958 0.34476858377456665 7.263718128204346 5.143093109130859 0.433870792388916 -0.06424155086278915 -0.6924257278442383 -0.07856938242912292 2.6196978092193604 0.8120214939117432 -0.440978467464447 0.35686010122299194 0.013802747242152691 -0.3413844108581543 10.260050773620605 0.6929431557655334 0.07930933684110641 -0.28066885471343994 0.35840481519699097 0.13277959823608398 1.993465542793274 -1.2982674837112427 -0.01365470141172409 -0.26107412576675415 0.17480003833770752 -0.008122486993670464 -9.992345809936523 37.572757720947266 -100.65989685058594 29.107511520385742 -38.81057357788086 -81.54888153076172 1.0994462966918945 -29.456268310546875 4.1020636558532715 -0.4505442678928375 0.1777992844581604 -0.14769822359085083 0.15742230415344238 0.14680688083171844 0.1300637274980545 0.42162811756134033 -0.1828210949897766 -0.14017435908317566 -7.965985298156738 4.864060401916504 -0.2782036364078522 -0.12990303337574005 0.1810097098350525 0.1892128586769104 -2.579397201538086 0.7219478487968445 0.14499732851982117 -0.15856216847896576 0.23145607113838196 0.4101192355155945 -10.204976081848145 0.4396016299724579 0.26081153750419617 -0.26344794034957886 0.40795257687568665 -0.06349241733551025 -2.335789680480957 -1.045744776725769 -0.40109938383102417 0.0012124375207349658 -0.24946880340576172 -0.36296045780181885 -23.785608291625977 -54.86258316040039 -15.450740814208984 -1.6109319925308228 55.651824951171875 1.7163859605789185 -1.825100302696228 12.63259220123291 2.6403167247772217 -0.4105834364891052 -0.3439701497554779 -0.004161084536463022 -0.3965519666671753 -22.413158416748047 10.057646751403809 1.577862024307251 63.83800506591797 -3.343226194381714 10.949442863464355 -16.30796241760254 23.858854293823242
